<?xml version="1.0" encoding="UTF-8" standalone="no"?>
<!DOCTYPE svg PUBLIC "-//W3C//DTD SVG 1.1//EN"
 "http://www.w3.org/Graphics/SVG/1.1/DTD/svg11.dtd">
<!-- Generated by graphviz version 2.40.1 (20161225.0304)
 -->
<!-- Title: multiple_rooms Pages: 1 -->
<svg width="115pt" height="156pt"
 viewBox="0.00 0.00 114.66 156.37" xmlns="http://www.w3.org/2000/svg" xmlns:xlink="http://www.w3.org/1999/xlink">
<g id="graph0" class="graph" transform="scale(1 1) rotate(0) translate(4 152.3675)">
<title>multiple_rooms</title>
<polygon fill="#ffffff" stroke="transparent" points="-4,4 -4,-152.3675 110.6604,-152.3675 110.6604,4 -4,4"/>
<!-- corridor -->
<g id="corridor" class="node">
<title>corridor</title>
<ellipse fill="#ffd8b2" stroke="#000000" cx="64.9411" cy="-135.6396" rx="41.9398" ry="12.96"/>
<text text-anchor="middle" x="64.9411" y="-133.4396" font-family="monospace" font-size="9.00" fill="#000000">Corridor</text>
</g>
<!-- room1 -->
<g id="room1" class="node">
<title>room1</title>
<ellipse fill="#b2ffb2" stroke="#000000" cx="33.9411" cy="-74.1838" rx="33.8824" ry="12.96"/>
<text text-anchor="middle" x="33.9411" y="-71.9838" font-family="monospace" font-size="9.00" fill="#000000">Room 1</text>
</g>
<!-- corridor&#45;&gt;room1 -->
<g id="edge1" class="edge">
<title>corridor&#45;&gt;room1</title>
<path fill="none" stroke="#000000" d="M58.5179,-122.9059C53.9457,-113.8418 47.7466,-101.5523 42.7183,-91.584"/>
<polygon fill="#000000" stroke="#000000" points="40.3561,-86.9011 44.6169,-90.352 41.4821,-89.1333 42.608,-91.3654 42.608,-91.3654 42.608,-91.3654 41.4821,-89.1333 40.5991,-92.3787 40.3561,-86.9011 40.3561,-86.9011"/>
</g>
<!-- room2 -->
<g id="room2" class="node">
<title>room2</title>
<ellipse fill="#b2b2ff" stroke="#000000" cx="64.9411" cy="-12.7279" rx="33.8824" ry="12.96"/>
<text text-anchor="middle" x="64.9411" y="-10.5279" font-family="monospace" font-size="9.00" fill="#000000">Room 2</text>
</g>
<!-- corridor&#45;&gt;room2 -->
<g id="edge2" class="edge">
<title>corridor&#45;&gt;room2</title>
<path fill="none" stroke="#000000" d="M69.0743,-122.5634C71.9219,-112.8425 75.4511,-99.1933 76.9411,-86.9117 78.3037,-75.6803 78.3037,-72.6872 76.9411,-61.4558 75.6662,-50.9473 72.8984,-39.4375 70.342,-30.2439"/>
<polygon fill="#000000" stroke="#000000" points="68.9543,-25.3958 72.4934,-29.5836 69.6423,-27.7992 70.3303,-30.2027 70.3303,-30.2027 70.3303,-30.2027 69.6423,-27.7992 68.1672,-30.8219 68.9543,-25.3958 68.9543,-25.3958"/>
</g>
<!-- room1&#45;&gt;room2 -->
<g id="edge3" class="edge">
<title>room1&#45;&gt;room2</title>
<path fill="none" stroke="#000000" d="M40.3643,-61.4501C44.9365,-52.386 51.1357,-40.0965 56.164,-30.1281"/>
<polygon fill="#000000" stroke="#000000" points="58.5261,-25.4453 58.2831,-30.9229 57.4002,-27.6774 56.2742,-29.9095 56.2742,-29.9095 56.2742,-29.9095 57.4002,-27.6774 54.2653,-28.8961 58.5261,-25.4453 58.5261,-25.4453"/>
</g>
</g>
</svg>
