<?xml version="1.0" encoding="UTF-8" standalone="no"?>
<?xml-stylesheet href="style.css" type="text/css"?>
<!DOCTYPE svg PUBLIC "-//W3C//DTD SVG 1.1//EN"
 "http://www.w3.org/Graphics/SVG/1.1/DTD/svg11.dtd">
<!-- Generated by graphviz version 2.40.1 (20161225.0304)
 -->
<!-- Title: take_lhs.svg Pages: 1 -->
<svg width="141pt" height="142pt"
 viewBox="0.00 0.00 141.00 142.00" xmlns="http://www.w3.org/2000/svg" xmlns:xlink="http://www.w3.org/1999/xlink">
<g id="graph0" class="graph" transform="scale(1 1) rotate(0) translate(4 138)">
<title>take_lhs.svg</title>
<polygon fill="#ffffff" stroke="transparent" points="-4,4 -4,-138 137,-138 137,4 -4,4"/>
<!-- r0 -->
<g id="node1" class="node">
<title>r0</title>
<polygon fill="none" stroke="#000000" stroke-dasharray="5,2" points="36.5,-134 13.5,-134 13.5,-116 36.5,-116 36.5,-134"/>
<text text-anchor="middle" x="25" y="-122.8" font-family="serif" font-size="9.00" fill="#000000">0</text>
</g>
<!-- v0 -->
<g id="v0_Agent" class="node">
<title>v0</title>
<ellipse fill="none" stroke="#000000" cx="25" cy="-11" rx="25" ry="11"/>
<text text-anchor="middle" x="25" y="-8.8" font-family="sans-serif" font-size="9.00" fill="#000000">Agent</text>
</g>
<!-- r0&#45;&gt;v0 -->
<g id="edge1" class="edge">
<title>r0&#45;&gt;v0</title>
<path fill="none" stroke="#000000" d="M25,-115.6709C25,-96.2913 25,-51.4689 25,-27.2423"/>
<polygon fill="#000000" stroke="#000000" points="25,-22.1188 27.2501,-27.1188 25,-24.6188 25.0001,-27.1188 25.0001,-27.1188 25.0001,-27.1188 25,-24.6188 22.7501,-27.1189 25,-22.1188 25,-22.1188"/>
</g>
<!-- r1 -->
<g id="node2" class="node">
<title>r1</title>
<polygon fill="none" stroke="#000000" stroke-dasharray="5,2" points="108.5,-134 85.5,-134 85.5,-116 108.5,-116 108.5,-134"/>
<text text-anchor="middle" x="97" y="-122.8" font-family="serif" font-size="9.00" fill="#000000">1</text>
</g>
<!-- v1 -->
<g id="v1_Location" class="node">
<title>v1</title>
<ellipse fill="none" stroke="#000000" cx="97" cy="-69" rx="36" ry="11"/>
<text text-anchor="middle" x="97" y="-66.8" font-family="sans-serif" font-size="9.00" fill="#000000">Location</text>
</g>
<!-- r1&#45;&gt;v1 -->
<g id="edge2" class="edge">
<title>r1&#45;&gt;v1</title>
<path fill="none" stroke="#000000" d="M97,-115.7527C97,-107.5747 97,-95.4467 97,-85.5926"/>
<polygon fill="#000000" stroke="#000000" points="97,-80.3915 99.2501,-85.3914 97,-82.8915 97.0001,-85.3915 97.0001,-85.3915 97.0001,-85.3915 97,-82.8915 94.7501,-85.3915 97,-80.3915 97,-80.3915"/>
</g>
<!-- v2 -->
<g id="v2_Object" class="node">
<title>v2</title>
<ellipse fill="none" stroke="#000000" cx="97" cy="-11" rx="29" ry="11"/>
<text text-anchor="middle" x="97" y="-8.8" font-family="sans-serif" font-size="9.00" fill="#000000">Object</text>
</g>
<!-- v1&#45;&gt;v2 -->
<g id="edge3" class="edge">
<title>v1&#45;&gt;v2</title>
<path fill="none" stroke="#000000" d="M97,-57.817C97,-49.1513 97,-37.0201 97,-27.278"/>
<polygon fill="#000000" stroke="#000000" points="97,-22.1487 99.2501,-27.1486 97,-24.6487 97.0001,-27.1487 97.0001,-27.1487 97.0001,-27.1487 97,-24.6487 94.7501,-27.1487 97,-22.1487 97,-22.1487"/>
</g>
</g>
</svg>
