<?xml version="1.0" encoding="UTF-8" standalone="no"?>
<?xml-stylesheet href="style.css" type="text/css"?>
<!DOCTYPE svg PUBLIC "-//W3C//DTD SVG 1.1//EN"
 "http://www.w3.org/Graphics/SVG/1.1/DTD/svg11.dtd">
<!-- Generated by graphviz version 2.40.1 (20161225.0304)
 -->
<!-- Title: foo_rhs.svg Pages: 1 -->
<svg width="232pt" height="138pt"
 viewBox="0.00 0.00 232.00 138.00" xmlns="http://www.w3.org/2000/svg" xmlns:xlink="http://www.w3.org/1999/xlink">
<g id="graph0" class="graph" transform="scale(1 1) rotate(0) translate(4 134)">
<title>foo_rhs.svg</title>
<polygon fill="#ffffff" stroke="transparent" points="-4,4 -4,-134 228,-134 228,4 -4,4"/>
<!-- r0 -->
<g id="node1" class="node">
<title>r0</title>
<polygon fill="none" stroke="#000000" stroke-dasharray="5,2" points="62,-130 39,-130 39,-112 62,-112 62,-130"/>
<text text-anchor="middle" x="50.5" y="-118.8" font-family="serif" font-size="9.00" fill="#000000">0</text>
</g>
<!-- v0 -->
<g id="v0_A" class="node">
<title>v0</title>
<ellipse fill="none" stroke="#000000" cx="91.5" cy="-11" rx="11" ry="11"/>
<text text-anchor="middle" x="91.5" y="-8.8" font-family="sans-serif" font-size="9.00" fill="#000000">A</text>
</g>
<!-- r0&#45;&gt;v0 -->
<g id="edge1" class="edge">
<title>r0&#45;&gt;v0</title>
<path fill="none" stroke="#000000" d="M53.8552,-111.9982C60.8606,-93.2032 77.1101,-49.607 85.7913,-26.3161"/>
<polygon fill="#000000" stroke="#000000" points="87.6238,-21.3996 87.9858,-26.8706 86.7506,-23.7422 85.8774,-26.0848 85.8774,-26.0848 85.8774,-26.0848 86.7506,-23.7422 83.7691,-25.2989 87.6238,-21.3996 87.6238,-21.3996"/>
</g>
<!-- r1 -->
<g id="node2" class="node">
<title>r1</title>
<polygon fill="none" stroke="#000000" stroke-dasharray="5,2" points="224,-130 201,-130 201,-112 224,-112 224,-130"/>
<text text-anchor="middle" x="212.5" y="-118.8" font-family="serif" font-size="9.00" fill="#000000">1</text>
</g>
<!-- v2 -->
<g id="v2_C" class="node">
<title>v2</title>
<ellipse fill="none" stroke="#000000" cx="191.5" cy="-11" rx="11" ry="11"/>
<text text-anchor="middle" x="191.5" y="-8.8" font-family="sans-serif" font-size="9.00" fill="#000000">C</text>
</g>
<!-- r1&#45;&gt;v2 -->
<g id="edge2" class="edge">
<title>r1&#45;&gt;v2</title>
<path fill="none" stroke="#000000" d="M210.7815,-111.9982C207.2298,-93.394 199.0389,-50.4896 194.5606,-27.0317"/>
<polygon fill="#000000" stroke="#000000" points="193.6118,-22.062 196.7596,-26.5513 194.0807,-24.5176 194.5495,-26.9733 194.5495,-26.9733 194.5495,-26.9733 194.0807,-24.5176 192.3394,-27.3953 193.6118,-22.062 193.6118,-22.062"/>
</g>
<!-- oe -->
<g id="node3" class="node">
<title>oe</title>
<text text-anchor="middle" x="171.5" y="-118.8" font-family="serif" font-size="9.00" fill="#000000">e</text>
</g>
<!-- e0 -->
<g id="node6" class="node">
<title>e0</title>
</g>
<!-- oe&#45;&gt;e0 -->
<g id="edge5" class="edge">
<title>oe&#45;&gt;e0</title>
<path fill="none" stroke="#00ff00" d="M171.5,-111.5939C171.5,-96.1226 171.5,-67 171.5,-67"/>
</g>
<!-- ox -->
<g id="node4" class="node">
<title>ox</title>
<text text-anchor="middle" x="91.5" y="-118.8" font-family="serif" font-size="9.00" fill="#000000">x</text>
</g>
<!-- oy -->
<g id="node5" class="node">
<title>oy</title>
<text text-anchor="middle" x="131.5" y="-118.8" font-family="serif" font-size="9.00" fill="#000000">y</text>
</g>
<!-- e2 -->
<g id="node7" class="node">
<title>e2</title>
</g>
<!-- oy&#45;&gt;e2 -->
<g id="edge9" class="edge">
<title>oy&#45;&gt;e2</title>
<path fill="none" stroke="#00ff00" d="M131.5,-111.5939C131.5,-96.1226 131.5,-67 131.5,-67"/>
</g>
<!-- v1 -->
<g id="v1_B" class="node">
<title>v1</title>
<ellipse fill="none" stroke="#000000" cx="131.5" cy="-11" rx="11" ry="11"/>
<text text-anchor="middle" x="131.5" y="-8.8" font-family="sans-serif" font-size="9.00" fill="#000000">B</text>
</g>
<!-- e0&#45;&gt;v1 -->
<g id="edge6" class="edge">
<title>e0&#45;&gt;v1</title>
<path fill="none" stroke="#00ff00" d="M171.5,-67C171.5,-67 149.2338,-35.8273 137.9267,-19.9974"/>
</g>
<!-- e0&#45;&gt;v2 -->
<g id="edge7" class="edge">
<title>e0&#45;&gt;v2</title>
<path fill="none" stroke="#00ff00" d="M171.5,-67C171.5,-67 181.9446,-37.755 187.7382,-21.5332"/>
</g>
<!-- e2&#45;&gt;v0 -->
<g id="edge10" class="edge">
<title>e2&#45;&gt;v0</title>
<path fill="none" stroke="#00ff00" d="M131.5,-67C131.5,-67 109.2338,-35.8273 97.9267,-19.9974"/>
</g>
<!-- e2&#45;&gt;v1 -->
<g id="edge11" class="edge">
<title>e2&#45;&gt;v1</title>
<path fill="none" stroke="#00ff00" d="M131.5,-67C131.5,-67 131.5,-38.3839 131.5,-22.0638"/>
</g>
<!-- v0&#45;&gt;ox -->
<g id="edge8" class="edge">
<title>v0&#45;&gt;ox</title>
<path fill="none" stroke="#00ff00" d="M91.5,-22.062C91.5,-43.8609 91.5,-91.987 91.5,-111.9982"/>
</g>
<!-- v0&#45;&gt;v1 -->
<g id="edge3" class="edge">
<title>v0&#45;&gt;v1</title>
<path fill="none" stroke="#000000" d="M102.75,-11C106.8561,-11 110.9623,-11 115.0684,-11"/>
<polygon fill="#000000" stroke="#000000" points="120.2695,-11 115.2696,-13.2501 117.7695,-11 115.2695,-11.0001 115.2695,-11.0001 115.2695,-11.0001 117.7695,-11 115.2695,-8.7501 120.2695,-11 120.2695,-11"/>
</g>
<!-- s0 -->
<g id="node11" class="node">
<title>s0</title>
<polygon fill="#c0c0c0" stroke="#000000" stroke-dasharray="5,2" points="23,-76 0,-76 0,-58 23,-58 23,-76"/>
<text text-anchor="middle" x="11.5" y="-64.8" font-family="serif" font-size="9.00" fill="#000000">0</text>
</g>
<!-- v0&#45;&gt;s0 -->
<g id="edge4" class="edge">
<title>v0&#45;&gt;s0</title>
<path fill="none" stroke="#000000" d="M82.1468,-17.5473C68.7873,-26.8989 44.0507,-44.2145 27.6826,-55.6722"/>
<polygon fill="#000000" stroke="#000000" points="23.3043,-58.737 26.1101,-54.0264 25.3524,-57.3033 27.4005,-55.8697 27.4005,-55.8697 27.4005,-55.8697 25.3524,-57.3033 28.6908,-57.7129 23.3043,-58.737 23.3043,-58.737"/>
</g>
</g>
</svg>
