<?xml version="1.0" encoding="UTF-8" standalone="no"?>
<?xml-stylesheet href="style.css" type="text/css"?>
<!DOCTYPE svg PUBLIC "-//W3C//DTD SVG 1.1//EN"
 "http://www.w3.org/Graphics/SVG/1.1/DTD/svg11.dtd">
<!-- Generated by graphviz version 2.40.1 (20161225.0304)
 -->
<!-- Title: s.svg Pages: 1 -->
<svg width="72pt" height="84pt"
 viewBox="0.00 0.00 71.50 84.00" xmlns="http://www.w3.org/2000/svg" xmlns:xlink="http://www.w3.org/1999/xlink">
<g id="graph0" class="graph" transform="scale(1 1) rotate(0) translate(4 80)">
<title>s.svg</title>
<polygon fill="#ffffff" stroke="transparent" points="-4,4 -4,-80 67.5,-80 67.5,4 -4,4"/>
<!-- r0 -->
<g id="node1" class="node">
<title>r0</title>
<polygon fill="none" stroke="#000000" stroke-dasharray="5,2" points="23,-76 0,-76 0,-58 23,-58 23,-76"/>
<text text-anchor="middle" x="11.5" y="-64.8" font-family="serif" font-size="9.00" fill="#000000">0</text>
</g>
<!-- v0 -->
<g id="v0_C" class="node">
<title>v0</title>
<ellipse fill="none" stroke="#000000" cx="31.5" cy="-11" rx="11" ry="11"/>
<text text-anchor="middle" x="31.5" y="-8.8" font-family="sans-serif" font-size="9.00" fill="#000000">C</text>
</g>
<!-- r0&#45;&gt;v0 -->
<g id="edge1" class="edge">
<title>r0&#45;&gt;v0</title>
<path fill="none" stroke="#000000" d="M14.8026,-57.7527C17.8259,-49.2874 22.3609,-36.5896 25.942,-26.5625"/>
<polygon fill="#000000" stroke="#000000" points="27.7146,-21.599 28.1518,-27.0645 26.8738,-23.9534 26.0329,-26.3077 26.0329,-26.3077 26.0329,-26.3077 26.8738,-23.9534 23.914,-25.5509 27.7146,-21.599 27.7146,-21.599"/>
</g>
<!-- oa -->
<g id="node2" class="node">
<title>oa</title>
<text text-anchor="middle" x="52.5" y="-64.8" font-family="serif" font-size="9.00" fill="#000000">a</text>
</g>
<!-- v0&#45;&gt;oa -->
<g id="edge2" class="edge">
<title>v0&#45;&gt;oa</title>
<path fill="none" stroke="#00ff00" d="M35.4746,-21.599C39.3878,-32.0342 45.3044,-47.8118 49.0323,-57.7527"/>
</g>
</g>
</svg>
