<?xml version="1.0" encoding="UTF-8" standalone="no"?>
<?xml-stylesheet href="style_sbrs.css" type="text/css"?>
<!DOCTYPE svg PUBLIC "-//W3C//DTD SVG 1.1//EN"
 "http://www.w3.org/Graphics/SVG/1.1/DTD/svg11.dtd">
<!-- Generated by graphviz version 2.40.1 (20161225.0304)
 -->
<!-- Title: example_ts.svg Pages: 1 -->
<svg width="213pt" height="385pt"
 viewBox="0.00 0.00 213.41 385.05" xmlns="http://www.w3.org/2000/svg" xmlns:xlink="http://www.w3.org/1999/xlink">
<g id="graph0" class="graph" transform="scale(1 1) rotate(0) translate(4 381.0488)">
<title>example_ts.svg</title>
<polygon fill="#ffffff" stroke="transparent" points="-4,4 -4,-381.0488 209.4056,-381.0488 209.4056,4 -4,4"/>
<!-- 0 -->
<g id="s0" class="node">
<title>0</title>
<g id="a_s0"><a xlink:href="./0.svg" xlink:title="initial">
<ellipse fill="none" stroke="#000000" stroke-width="2" cx="154.4056" cy="-364.3209" rx="37.4533" ry="12.96"/>
<text text-anchor="start" x="135.9056" y="-362.1209" font-family="monospace" font-size="9.00" fill="#000000">initial</text>
</a>
</g>
</g>
<!-- 5 -->
<g id="s0_a" class="node">
<title>5</title>
<ellipse fill="#bfbfbf" stroke="#000000" cx="126.4056" cy="-303.9863" rx="14.5" ry="10.7143"/>
<text text-anchor="start" x="124.4056" y="-302.6863" font-family="monospace" font-size="6.00" fill="#000000">a</text>
</g>
<!-- 0&#45;&gt;5 -->
<g id="edge4" class="edge">
<title>0&#45;&gt;5</title>
<path fill="none" stroke="#000000" d="M148.4675,-351.5255C144.0529,-342.0129 138.016,-329.0045 133.373,-318.9998"/>
<polygon fill="#000000" stroke="#000000" points="131.219,-314.3582 135.3647,-317.9464 132.2714,-316.6259 133.3238,-318.8936 133.3238,-318.8936 133.3238,-318.8936 132.2714,-316.6259 131.2829,-319.8408 131.219,-314.3582 131.219,-314.3582"/>
</g>
<!-- 2 -->
<g id="s2" class="node">
<title>2</title>
<g id="a_s2"><a xlink:href="./2.svg" xlink:title="heads&lt;br/&gt;&lt;font color=&#39;darkgreen&#39;&gt;+3&lt;/font&gt;">
<ellipse fill="none" stroke="#000000" cx="30.4056" cy="-85.0122" rx="30.3115" ry="19.6"/>
<text text-anchor="start" x="16.9056" y="-87.8122" font-family="monospace" font-size="9.00" fill="#000000">heads</text>
<text text-anchor="start" x="24.9056" y="-77.8122" font-family="monospace" font-size="9.00" fill="#006400">+3</text>
</a>
</g>
</g>
<!-- 4 -->
<g id="s2_a" class="node">
<title>4</title>
<ellipse fill="#bfbfbf" stroke="#000000" cx="38.4056" cy="-10.6066" rx="14.5" ry="10.7143"/>
<text text-anchor="start" x="36.4056" y="-9.3066" font-family="monospace" font-size="6.00" fill="#000000">a</text>
</g>
<!-- 2&#45;&gt;4 -->
<g id="edge5" class="edge">
<title>2&#45;&gt;4</title>
<path fill="none" stroke="#000000" d="M27.7308,-65.2863C27.0983,-57.1628 26.9671,-47.6875 28.4056,-39.2132 29.1777,-34.6649 30.5941,-29.8762 32.1228,-25.5453"/>
<polygon fill="#000000" stroke="#000000" points="33.9372,-20.7135 34.2859,-26.1853 33.0583,-23.0539 32.1795,-25.3943 32.1795,-25.3943 32.1795,-25.3943 33.0583,-23.0539 30.0731,-24.6034 33.9372,-20.7135 33.9372,-20.7135"/>
</g>
<!-- 1 -->
<g id="s1" class="node">
<title>1</title>
<g id="a_s1"><a xlink:href="./1.svg" xlink:title="1">
<ellipse fill="none" stroke="#000000" cx="100.4056" cy="-236.6518" rx="21.5" ry="12.96"/>
<text text-anchor="middle" x="100.4056" y="-234.4518" font-family="monospace" font-size="9.00" fill="#000000">1</text>
</a>
</g>
</g>
<!-- 7 -->
<g id="s1_c" class="node">
<title>7</title>
<ellipse fill="#bfbfbf" stroke="#000000" cx="69.4056" cy="-164.3675" rx="14.5" ry="10.7143"/>
<text text-anchor="start" x="67.4056" y="-163.0675" font-family="monospace" font-size="6.00" fill="#000000">c</text>
</g>
<!-- 1&#45;&gt;7 -->
<g id="edge2" class="edge">
<title>1&#45;&gt;7</title>
<path fill="none" stroke="#000000" d="M95.0058,-224.0608C89.7377,-211.777 81.7125,-193.0642 76.0543,-179.8707"/>
<polygon fill="#000000" stroke="#000000" points="73.9381,-174.9363 77.9768,-178.6447 74.9235,-177.2339 75.9089,-179.5316 75.9089,-179.5316 75.9089,-179.5316 74.9235,-177.2339 73.8411,-180.4184 73.9381,-174.9363 73.9381,-174.9363"/>
</g>
<!-- 6 -->
<g id="s1_b" class="node">
<title>6</title>
<ellipse fill="#bfbfbf" stroke="#000000" cx="127.4056" cy="-164.3675" rx="16.9412" ry="15.6129"/>
<text text-anchor="start" x="125.4056" y="-166.5675" font-family="monospace" font-size="6.00" fill="#000000">b</text>
<text text-anchor="start" x="123.4056" y="-159.5675" font-family="monospace" font-size="6.00" fill="#006400">+1</text>
</g>
<!-- 1&#45;&gt;6 -->
<g id="edge3" class="edge">
<title>1&#45;&gt;6</title>
<path fill="none" stroke="#000000" d="M102.0302,-223.8135C103.2521,-216.135 105.266,-206.2787 108.4056,-197.9239 110.3889,-192.646 113.1236,-187.209 115.9007,-182.2888"/>
<polygon fill="#000000" stroke="#000000" points="118.4426,-177.9349 117.8647,-183.3874 117.1821,-180.0939 115.9216,-182.2529 115.9216,-182.2529 115.9216,-182.2529 117.1821,-180.0939 113.9785,-181.1185 118.4426,-177.9349 118.4426,-177.9349"/>
</g>
<!-- 3 -->
<g id="s3" class="node">
<title>3</title>
<g id="a_s3"><a xlink:href="./3.svg" xlink:title="tails">
<ellipse fill="none" stroke="#000000" cx="109.4056" cy="-85.0122" rx="30.3115" ry="12.96"/>
<text text-anchor="start" x="95.9056" y="-82.8122" font-family="monospace" font-size="9.00" fill="#000000">tails</text>
</a>
</g>
</g>
<!-- 8 -->
<g id="s3_a" class="node">
<title>8</title>
<ellipse fill="#bfbfbf" stroke="#000000" cx="101.4056" cy="-10.6066" rx="14.5" ry="10.7143"/>
<text text-anchor="start" x="99.4056" y="-9.3066" font-family="monospace" font-size="6.00" fill="#000000">a</text>
</g>
<!-- 3&#45;&gt;8 -->
<g id="edge1" class="edge">
<title>3&#45;&gt;8</title>
<path fill="none" stroke="#000000" d="M108.0121,-72.0517C106.6526,-59.4074 104.5816,-40.1454 103.1214,-26.5647"/>
<polygon fill="#000000" stroke="#000000" points="102.5753,-21.4856 105.347,-26.2163 102.8426,-23.9712 103.1099,-26.4569 103.1099,-26.4569 103.1099,-26.4569 102.8426,-23.9712 100.8728,-26.6975 102.5753,-21.4856 102.5753,-21.4856"/>
</g>
<!-- 8&#45;&gt;3 -->
<g id="edge12" class="edge">
<title>8&#45;&gt;3</title>
<path fill="none" stroke="#000000" d="M102.5753,-21.4856C103.8613,-33.4462 105.9476,-52.8506 107.4765,-67.0707"/>
<polygon fill="#000000" stroke="#000000" points="108.0121,-72.0517 105.2404,-67.321 107.7448,-69.5661 107.4775,-67.0804 107.4775,-67.0804 107.4775,-67.0804 107.7448,-69.5661 109.7146,-66.8398 108.0121,-72.0517 108.0121,-72.0517"/>
<text text-anchor="middle" x="119.9056" y="-41.6132" font-family="monospace" font-size="7.00" fill="#000000">1, loopT</text>
</g>
<!-- 7&#45;&gt;2 -->
<g id="edge10" class="edge">
<title>7&#45;&gt;2</title>
<path fill="none" stroke="#000000" d="M63.0703,-154.5937C58.9305,-148.0092 53.5446,-139.0539 49.4056,-130.8112 45.9531,-123.9357 42.5954,-116.2787 39.6872,-109.224"/>
<polygon fill="#000000" stroke="#000000" points="37.75,-104.4531 41.7159,-108.2392 38.6906,-106.7694 39.6312,-109.0858 39.6312,-109.0858 39.6312,-109.0858 38.6906,-106.7694 37.5465,-109.9323 37.75,-104.4531 37.75,-104.4531"/>
<text text-anchor="middle" x="64.9056" y="-125.2112" font-family="monospace" font-size="7.00" fill="#000000">0.5, toH</text>
</g>
<!-- 7&#45;&gt;3 -->
<g id="edge11" class="edge">
<title>7&#45;&gt;3</title>
<path fill="none" stroke="#000000" d="M74.4716,-154.3171C81.0634,-141.2397 92.6838,-118.1863 100.7011,-102.2808"/>
<polygon fill="#000000" stroke="#000000" points="103.064,-97.5931 102.8226,-103.0708 101.9387,-99.8256 100.8134,-102.058 100.8134,-102.058 100.8134,-102.058 101.9387,-99.8256 98.8042,-101.0452 103.064,-97.5931 103.064,-97.5931"/>
<text text-anchor="middle" x="104.9056" y="-125.2112" font-family="monospace" font-size="7.00" fill="#000000">0.5, toT</text>
</g>
<!-- 6&#45;&gt;0 -->
<g id="edge8" class="edge">
<title>6&#45;&gt;0</title>
<path fill="none" stroke="#000000" d="M138.973,-176.0287C144.1327,-182.0394 149.6589,-189.8034 152.4056,-197.9239 169.8191,-249.4065 162.7206,-315.0778 157.7315,-346.2856"/>
<polygon fill="#000000" stroke="#000000" points="156.892,-351.3464 155.4907,-346.0456 157.3012,-348.8801 157.7103,-346.4138 157.7103,-346.4138 157.7103,-346.4138 157.3012,-348.8801 159.93,-346.7821 156.892,-351.3464 156.892,-351.3464"/>
<text text-anchor="middle" x="184.4056" y="-269.7797" font-family="monospace" font-size="7.00" fill="#000000">0.7, toInit</text>
</g>
<!-- 6&#45;&gt;1 -->
<g id="edge9" class="edge">
<title>6&#45;&gt;1</title>
<path fill="none" stroke="#000000" d="M121.8235,-179.312C117.5029,-190.879 111.5089,-206.9262 106.9604,-219.1033"/>
<polygon fill="#000000" stroke="#000000" points="105.1086,-224.0608 104.7505,-218.5896 105.9834,-221.7189 106.8583,-219.3769 106.8583,-219.3769 106.8583,-219.3769 105.9834,-221.7189 108.966,-220.1643 105.1086,-224.0608 105.1086,-224.0608"/>
<text text-anchor="middle" x="131.4056" y="-200.3239" font-family="monospace" font-size="7.00" fill="#000000">0.3, loop</text>
</g>
<!-- 5&#45;&gt;1 -->
<g id="edge7" class="edge">
<title>5&#45;&gt;1</title>
<path fill="none" stroke="#000000" d="M122.4568,-293.7597C118.3934,-283.2365 111.988,-266.6479 107.1255,-254.055"/>
<polygon fill="#000000" stroke="#000000" points="105.2798,-249.2749 109.1799,-253.1288 106.1803,-251.6071 107.0809,-253.9393 107.0809,-253.9393 107.0809,-253.9393 106.1803,-251.6071 104.9819,-254.7498 105.2798,-249.2749 105.2798,-249.2749"/>
<text text-anchor="middle" x="131.4056" y="-269.7797" font-family="monospace" font-size="7.00" fill="#000000">1, toTemp</text>
</g>
<!-- 4&#45;&gt;2 -->
<g id="edge6" class="edge">
<title>4&#45;&gt;2</title>
<path fill="none" stroke="#000000" d="M37.2684,-21.1832C36.1874,-31.2371 34.5204,-46.7414 33.1001,-59.9516"/>
<polygon fill="#000000" stroke="#000000" points="32.5494,-65.0729 30.8469,-59.8609 32.8167,-62.5872 33.084,-60.1015 33.084,-60.1015 33.084,-60.1015 32.8167,-62.5872 35.3212,-60.3421 32.5494,-65.0729 32.5494,-65.0729"/>
<text text-anchor="middle" x="50.9056" y="-41.6132" font-family="monospace" font-size="7.00" fill="#000000">1, loopH</text>
</g>
</g>
</svg>
