<?xml version="1.0" encoding="UTF-8" standalone="no"?>
<?xml-stylesheet href="style.css" type="text/css"?>
<!DOCTYPE svg PUBLIC "-//W3C//DTD SVG 1.1//EN"
 "http://www.w3.org/Graphics/SVG/1.1/DTD/svg11.dtd">
<!-- Generated by graphviz version 2.40.1 (20161225.0304)
 -->
<!-- Title: 1.svg Pages: 1 -->
<svg width="235pt" height="142pt"
 viewBox="0.00 0.00 235.00 142.00" xmlns="http://www.w3.org/2000/svg" xmlns:xlink="http://www.w3.org/1999/xlink">
<g id="graph0" class="graph" transform="scale(1 1) rotate(0) translate(4 138)">
<title>1.svg</title>
<polygon fill="#ffffff" stroke="transparent" points="-4,4 -4,-138 231,-138 231,4 -4,4"/>
<!-- r0 -->
<g id="node1" class="node">
<title>r0</title>
<polygon fill="none" stroke="#000000" stroke-dasharray="5,2" points="40.5,-134 17.5,-134 17.5,-116 40.5,-116 40.5,-134"/>
<text text-anchor="middle" x="29" y="-122.8" font-family="serif" font-size="9.00" fill="#000000">0</text>
</g>
<!-- v0 -->
<g id="v0_Agent" class="node">
<title>v0</title>
<ellipse fill="none" stroke="#000000" cx="29" cy="-69" rx="25" ry="11"/>
<text text-anchor="middle" x="29" y="-66.8" font-family="sans-serif" font-size="9.00" fill="#000000">Agent</text>
</g>
<!-- r0&#45;&gt;v0 -->
<g id="edge1" class="edge">
<title>r0&#45;&gt;v0</title>
<path fill="none" stroke="#000000" d="M29,-115.7527C29,-107.5747 29,-95.4467 29,-85.5926"/>
<polygon fill="#000000" stroke="#000000" points="29,-80.3915 31.2501,-85.3914 29,-82.8915 29.0001,-85.3915 29.0001,-85.3915 29.0001,-85.3915 29,-82.8915 26.7501,-85.3915 29,-80.3915 29,-80.3915"/>
</g>
<!-- r1 -->
<g id="node2" class="node">
<title>r1</title>
<polygon fill="none" stroke="#000000" stroke-dasharray="5,2" points="119.5,-134 96.5,-134 96.5,-116 119.5,-116 119.5,-134"/>
<text text-anchor="middle" x="108" y="-122.8" font-family="serif" font-size="9.00" fill="#000000">1</text>
</g>
<!-- v3 -->
<g id="v3_Location" class="node">
<title>v3</title>
<ellipse fill="none" stroke="#000000" cx="108" cy="-69" rx="36" ry="11"/>
<text text-anchor="middle" x="108" y="-66.8" font-family="sans-serif" font-size="9.00" fill="#000000">Location</text>
</g>
<!-- r1&#45;&gt;v3 -->
<g id="edge2" class="edge">
<title>r1&#45;&gt;v3</title>
<path fill="none" stroke="#000000" d="M108,-115.7527C108,-107.5747 108,-95.4467 108,-85.5926"/>
<polygon fill="#000000" stroke="#000000" points="108,-80.3915 110.2501,-85.3914 108,-82.8915 108.0001,-85.3915 108.0001,-85.3915 108.0001,-85.3915 108,-82.8915 105.7501,-85.3915 108,-80.3915 108,-80.3915"/>
</g>
<!-- r2 -->
<g id="node3" class="node">
<title>r2</title>
<polygon fill="none" stroke="#000000" stroke-dasharray="5,2" points="202.5,-134 179.5,-134 179.5,-116 202.5,-116 202.5,-134"/>
<text text-anchor="middle" x="191" y="-122.8" font-family="serif" font-size="9.00" fill="#000000">2</text>
</g>
<!-- v2 -->
<g id="v2_Location" class="node">
<title>v2</title>
<ellipse fill="none" stroke="#000000" cx="191" cy="-11" rx="36" ry="11"/>
<text text-anchor="middle" x="191" y="-8.8" font-family="sans-serif" font-size="9.00" fill="#000000">Location</text>
</g>
<!-- r2&#45;&gt;v2 -->
<g id="edge3" class="edge">
<title>r2&#45;&gt;v2</title>
<path fill="none" stroke="#000000" d="M191,-115.6709C191,-96.2913 191,-51.4689 191,-27.2423"/>
<polygon fill="#000000" stroke="#000000" points="191,-22.1188 193.2501,-27.1188 191,-24.6188 191.0001,-27.1188 191.0001,-27.1188 191.0001,-27.1188 191,-24.6188 188.7501,-27.1189 191,-22.1188 191,-22.1188"/>
</g>
<!-- v1 -->
<g id="v1_Object" class="node">
<title>v1</title>
<ellipse fill="none" stroke="#000000" cx="29" cy="-11" rx="29" ry="11"/>
<text text-anchor="middle" x="29" y="-8.8" font-family="sans-serif" font-size="9.00" fill="#000000">Object</text>
</g>
<!-- v0&#45;&gt;v1 -->
<g id="edge4" class="edge">
<title>v0&#45;&gt;v1</title>
<path fill="none" stroke="#000000" d="M29,-57.817C29,-49.1513 29,-37.0201 29,-27.278"/>
<polygon fill="#000000" stroke="#000000" points="29,-22.1487 31.2501,-27.1486 29,-24.6487 29.0001,-27.1487 29.0001,-27.1487 29.0001,-27.1487 29,-24.6487 26.7501,-27.1487 29,-22.1487 29,-22.1487"/>
</g>
<!-- v4 -->
<g id="v4_Object" class="node">
<title>v4</title>
<ellipse fill="none" stroke="#000000" cx="108" cy="-11" rx="29" ry="11"/>
<text text-anchor="middle" x="108" y="-8.8" font-family="sans-serif" font-size="9.00" fill="#000000">Object</text>
</g>
<!-- v3&#45;&gt;v4 -->
<g id="edge5" class="edge">
<title>v3&#45;&gt;v4</title>
<path fill="none" stroke="#000000" d="M108,-57.817C108,-49.1513 108,-37.0201 108,-27.278"/>
<polygon fill="#000000" stroke="#000000" points="108,-22.1487 110.2501,-27.1486 108,-24.6487 108.0001,-27.1487 108.0001,-27.1487 108.0001,-27.1487 108,-24.6487 105.7501,-27.1487 108,-22.1487 108,-22.1487"/>
</g>
</g>
</svg>
